<svg xmlns="http://www.w3.org/2000/svg" viewBox="0 0 240 240" role="img" aria-labelledby="title desc">
  <title id="title">Iris Pleyade</title>
  <desc id="desc">Circular gold logo mark with two raised hands holding stars.</desc>
  <defs>
    <linearGradient id="gold" x1="40" y1="28" x2="205" y2="224" gradientUnits="userSpaceOnUse">
      <stop offset="0" stop-color="#F4D978"/>
      <stop offset=".22" stop-color="#C39A36"/>
      <stop offset=".58" stop-color="#A97A2E"/>
      <stop offset="1" stop-color="#E7C966"/>
    </linearGradient>
    <linearGradient id="goldSoft" x1="64" y1="102" x2="184" y2="213" gradientUnits="userSpaceOnUse">
      <stop offset="0" stop-color="#F8E5A1"/>
      <stop offset=".42" stop-color="#C8A044"/>
      <stop offset="1" stop-color="#A97A2E"/>
    </linearGradient>
    <filter id="warmGlow" x="-20%" y="-20%" width="140%" height="140%">
      <feDropShadow dx="0" dy="1.5" stdDeviation="1.8" flood-color="#B98637" flood-opacity=".26"/>
    </filter>
  </defs>

  <path d="M206 58C184 28 148 10 109 13 58 17 19 58 16 109c-3 45 24 86 64 104" fill="none" stroke="url(#gold)" stroke-width="8.5" stroke-linecap="round"/>
  <path d="M80 214c18 7 39 9 59 4 51-12 83-63 71-114-1-4-2-9-4-13" fill="none" stroke="url(#gold)" stroke-width="8.5" stroke-linecap="round"/>
  <path d="M219 77c-10-19-24-34-42-45" fill="none" stroke="#F2D271" stroke-width="2.2" stroke-linecap="round" opacity=".7"/>
  <path d="M32 154c-15-51 10-105 58-128" fill="none" stroke="#F3D57B" stroke-width="2.1" stroke-linecap="round" opacity=".55"/>

  <g filter="url(#warmGlow)">
    <path d="M60 136c15 4 31 16 45 35 11 15 15 31 13 48-18-2-35-10-48-23-14-14-21-34-27-58-1-6 3-8 17-2Z" fill="url(#goldSoft)"/>
    <path d="M48 132c16 6 28 18 39 34" fill="none" stroke="#F9E7A2" stroke-width="4.2" stroke-linecap="round"/>
    <path d="M61 126c13 9 24 24 31 42" fill="none" stroke="#F9E7A2" stroke-width="4.2" stroke-linecap="round"/>
    <path d="M77 127c9 11 17 25 21 42" fill="none" stroke="#F9E7A2" stroke-width="4.2" stroke-linecap="round"/>
    <path d="M93 135c6 9 10 20 13 32" fill="none" stroke="#F9E7A2" stroke-width="4.2" stroke-linecap="round"/>
    <path d="M72 188c11 11 25 17 43 19" fill="none" stroke="#8D6426" stroke-width="2" stroke-linecap="round" opacity=".28"/>

    <path d="M180 136c-15 4-31 16-45 35-11 15-15 31-13 48 18-2 35-10 48-23 14-14 21-34 27-58 1-6-3-8-17-2Z" fill="url(#goldSoft)"/>
    <path d="M192 132c-16 6-28 18-39 34" fill="none" stroke="#F9E7A2" stroke-width="4.2" stroke-linecap="round"/>
    <path d="M179 126c-13 9-24 24-31 42" fill="none" stroke="#F9E7A2" stroke-width="4.2" stroke-linecap="round"/>
    <path d="M163 127c-9 11-17 25-21 42" fill="none" stroke="#F9E7A2" stroke-width="4.2" stroke-linecap="round"/>
    <path d="M147 135c-6 9-10 20-13 32" fill="none" stroke="#F9E7A2" stroke-width="4.2" stroke-linecap="round"/>
    <path d="M168 188c-11 11-25 17-43 19" fill="none" stroke="#8D6426" stroke-width="2" stroke-linecap="round" opacity=".28"/>
  </g>

  <g fill="url(#gold)" filter="url(#warmGlow)">
    <path d="m120 76 6 15.5 15.5 6-15.5 6-6 15.5-6-15.5-15.5-6 15.5-6Z"/>
    <path d="m91 103 4.5 11.8 11.8 4.5-11.8 4.5L91 136.5l-4.5-11.7-11.8-4.5 11.8-4.5Z"/>
    <path d="m149 103 4.5 11.8 11.8 4.5-11.8 4.5-4.5 11.7-4.5-11.7-11.8-4.5 11.8-4.5Z"/>
    <path d="m119 126 5 13 13 5-13 5-5 13-5-13-13-5 13-5Z"/>
    <path d="m83 145 3.5 9.2 9.2 3.5-9.2 3.5-3.5 9.2-3.5-9.2-9.2-3.5 9.2-3.5Z"/>
    <path d="m157 145 3.5 9.2 9.2 3.5-9.2 3.5-3.5 9.2-3.5-9.2-9.2-3.5 9.2-3.5Z"/>
    <path d="m106 166 3.5 9.2 9.2 3.5-9.2 3.5-3.5 9.2-3.5-9.2-9.2-3.5 9.2-3.5Z"/>
    <path d="m134 166 3.5 9.2 9.2 3.5-9.2 3.5-3.5 9.2-3.5-9.2-9.2-3.5 9.2-3.5Z"/>
  </g>
</svg>
